<svg xmlns="http://www.w3.org/2000/svg" width="1143" height="300"><g fill="none"><g fill="#00A5FF"><path d="M1074.3 80.6H1054v88.9a26.5 26.5 0 0 1-26.2 26H950l-1.8 1.8a18 18 0 0 0 16.8 13h32.5L1045 250v-39.7h29.2c9.2 0 18.3-8.4 18.3-17.6v-96c0-9.2-9.1-16-18.3-16z"/><path d="M1027.8 50H870c-9.1 0-17.6 7.4-17.6 16.6v102.9c0 9.2 8.5 17 17.6 17h29.8v40.3l47-40.3h81c9.4-.1 17-7.6 17.3-17v-103c-.3-9.2-8-16.6-17.3-16.5z"/></g><path fill="#32325C" d="M159.6 95.1c-13-3.8-26.4-5.9-39.9-6.1C81.5 89 59 112.4 59 146.8c0 34.8 23 58 58.9 58a165 165 0 0 0 45.2-7.2l1.6 7.2a152.3 152.3 0 0 1-47.2 8c-41.1 0-67.5-26.4-67.5-66s26.4-66 69-66c14.4.1 28.7 2.3 42.4 6.5l-1.8 7.8zM189.1 210H181V80.9h8.1zm16.4-116.9a6.4 6.4 0 0 1 6.7-6.7 6.7 6.7 0 0 1 6.8 6.7c0 3.7-3.1 6.7-6.8 6.7a6.5 6.5 0 0 1-6.7-6.7zm11 117H208v-84.8h8.3V210zm91.1-76.5c-8.8-2.4-17.9-3.8-27-4-22.9 0-38.3 15-38.3 38 0 22.8 15.3 37.8 36.9 37.8a123 123 0 0 0 30.6-5l1.6 7a119.3 119.3 0 0 1-32 5.5c-26.9 0-45.5-17.9-45.5-45.4s18.8-45.2 46.6-45.2a99 99 0 0 1 28.6 4.7l-1.5 6.6zm42.8 29.8l38.5-38.1h10.7l-39.3 38.9L407 210h-10.7l-40.4-39h-19.8v39h-8.3V80.8h8.3v82.6zm158.4-58.2a162 162 0 0 0-42.6-7.4c-16.2 0-26.8 6.8-26.8 19.8 0 12 10.6 15.5 32 20 27.7 5.7 45.8 12.8 45.8 36.7 0 25.5-20 38.5-48.3 38.5-18-.2-35.8-3.8-52.5-10.5l4.4-16.6c15.4 6.6 32 10.2 48.7 10.6 17.7 0 30-7 30-20.3 0-17-20.2-19.7-39.6-23.6-27.8-5.8-39-14.3-39-34.1 0-22.5 18.4-36.7 46-36.7 15.8.3 31.6 3 46.6 8l-4.7 15.6zM614.5 160c.1 4.4-.2 8.7-.9 13h-67.9c2.5 14.7 13.5 24.6 30.5 24.6 9.4 0 18.5-2 31.2-4.9l2.6 13.8a109 109 0 0 1-34.3 6.3c-31 0-48-19.9-48-46.5 0-27.8 19.1-46.1 45-46.1 24.3 0 41.7 15.7 41.8 39.8zm-69.3-.2h54c-.4-16-10.9-26-26.2-26-15.6 0-26 10.4-27.8 26zm165.7-4.8v55H694v-50.4c0-14.6-8.7-23.8-22.4-23.8-9.3.1-18.7.9-28 2.3V210H627v-85.3a294 294 0 0 1 48.4-4.3c21.7 0 35.6 13.2 35.6 34.6zm100 54.1c-15.5 2.8-31.2 4-46.9 3.7-24.7 0-42.3-17-42.3-46.3 0-27.3 15.5-45.5 44.7-45.5 9.3-.2 18.6.9 27.7 3.2V80.7h16.7v128.4zm-72.6-42.6c0 19.4 10 32.4 29.1 32.4 9 0 17.8-.8 26.6-2.2v-58c-8.3-2.3-17-3.5-25.6-3.4-21 0-30.1 13-30.1 31.2z"/></g></svg>